PathFileType	4	(X/Y/Z)	C:/Users/beibeiliu/ov580/test_trc/capture2\sequence.32_training_dense_right.trc
DataRate	CameraRate	NumFrames	NumMarkers	Units	OrigDataRate	OrigDataStartFrame	OrigNumFrames
120	120	25	19	mm	120	287	327
Frame#	Time	ThumbCMC			ThumbMCP			ThumbIP			ThumbTip			IndexMCP			IndexPIP			IndexTip			MiddleMCP			MiddlePIP			MiddleTip			RingMCP			RingPIP			RingTip			PinkyMCP			PinkyPIP			PinkyTip			BackHand1			BackHand2			BackHand3	
		X0	Y0	Z0	X1	Y1	Z1	X2	Y2	Z2	X3	Y3	Z3	X4	Y4	Z4	X5	Y5	Z5	X6	Y6	Z6	X7	Y7	Z7	X8	Y8	Z8	X9	Y9	Z9	X10	Y10	Z10	X11	Y11	Z11	X12	Y12	Z12	X13	Y13	Z13	X14	Y14	Z14	X15	Y15	Z15	X16	Y16	Z16	X17	Y17	Z17	X18	Y18	Z18	
286	2.38333	159.007	60.6876	94.2511	144.306	82.0935	75.7745	135.957	94.7961	54.0449	125.927	83.4517	29.3642	183.543	53.339	28.6621	177.741	63.1622	0.71367	148.035	72.7816	-8.70472	183.325	27.6135	18.9864	175.737	31.5377	-9.91398	145.199	50.3602	-21.8942	170.547	9.04512	19.9643	158.326	15.4194	-7.75733	133.488	31.4757	-11.4382	147.649	-8.61543	31.3029	133.34	-6.58887	5.44433	109.991	14.6894	-4.66211	169.271	3.56517	71.0175	168.541	0.0414494	99.7257	182.999	33.1048	87.8876	
287	2.39167	157.517	64.5182	98.5993	139.235	82.3384	77.6563	130.885	94.3943	55.2504	121.767	79.4306	31.8909	182.36	57.5434	30.145	175.379	70.7272	1.48746	141.217	74.7341	-7.21654	182.145	33.2313	23.7678	176.192	34.7013	-8.76411	141.929	51.8103	-20.3257	167.788	9.13958	22.3714	156.324	17.8552	-7.75422	125.265	34.228	-8.64728	146.602	-7.73623	28.5916	128.2	-2.74704	4.25881	112.112	14.9174	-1.96503	170.457	3.16415	70.5475	168.331	0.884605	96.4345	179.951	36.5943	88.422	
288	2.4	155.306	66.7943	100.49	137.199	85.9828	76.5659	126.116	93.2063	51.8514	116.515	78.559	28.6398	179.669	59.1195	28.289	172.308	69.4487	0.627733	138.012	75.3519	-6.11602	181.757	32.3996	19.8399	171.056	35.1197	-10.2542	141.74	50.5754	-19.0698	167.175	15.1812	24.0675	154.942	17.7571	-6.18439	126.629	38.1507	-5.93755	145.695	-6.00031	27.5878	127.747	-5.43719	7.54526	107.322	22.2992	1.83033	170.342	7.35194	73.0272	171.611	6.44433	97.5247	177.61	34.2871	88.8758	
289	2.40833	155.659	66.7595	98.3657	136.549	86.0438	79.3726	124.296	95.9995	55.9294	116.238	77.8137	34.3707	179.476	63.466	30.3232	169.887	70.2998	0.869319	140.892	77.9137	-5.77126	180.31	36.9855	22.2456	171.51	35.8491	-8.42032	137.43	48.659	-17.0359	166.804	15.7447	19.9658	151.531	19.1192	-7.28769	122.793	35.4415	-3.84776	145.598	-5.42592	26.6082	128.521	1.11305	6.20919	106.98	18.7494	3.7511	167.447	6.21637	72.1024	169.388	2.72866	99.7695	180.742	37.4877	87.4057	
290	2.41667	155.654	68.6697	99.0946	135.277	85.9215	77.0776	124.523	92.9607	52.0993	115.976	76.511	30.319	179.815	65.9889	27.6358	167.469	71.8431	-1.13883	139.863	75.1979	-6.04305	179.729	36.4486	19.3754	169.046	40.6678	-10.6227	134.382	52.283	-15.2276	166.552	18.1972	22.3392	150.514	21.1049	-5.92156	123.356	39.0629	-2.54909	145.962	-4.79729	32.2583	129.889	2.62201	6.1124	103.478	20.908	4.43672	168.537	7.41568	70.3457	170.201	4.42207	98.5103	180.133	38.5959	86.2639	
291	2.425	154.379	67.0271	96.2752	135.111	88.4406	78.2342	124.803	92.3648	55.261	114.302	80.0043	30.3549	178.008	63.8339	28.3153	168.504	70.7786	0.828391	136.196	77.615	-5.05852	177.315	35.6293	22.4932	168.413	41.4609	-9.79003	135.682	53.1039	-16.4133	167.287	18.1089	18.9299	153.886	21.1678	-5.08349	124.027	40.3763	-2.92216	146.688	-3.38921	31.4984	129.51	-0.318624	5.87283	104.663	18.8326	1.80083	170.426	10.0385	70.2782	169.575	8.79613	96.8741	179.941	37.4187	89.8099	
292	2.43333	153.388	68.3344	98.4725	134.154	88.3338	82.4727	121.293	96.9823	53.6636	112.074	84.7955	30.2698	177.317	63.6992	30.1856	169.715	71.7596	0.27441	138.841	77.4982	-7.63888	178.297	37.4863	19.7311	170.227	41.11	-9.09847	133.218	49.218	-18.2988	167.957	15.9852	20.4566	152.707	23.9909	-7.31478	125.847	34.3255	-8.30411	150.872	-0.488927	32.4189	134.053	-0.495668	3.62593	111.201	17.1114	-4.67348	171.268	9.88518	66.97	170.999	5.26886	100.016	179.516	39.6002	87.5844	
293	2.44167	150.811	71.8928	95.6569	130.84	84.1731	80.0801	118.554	95.073	58.8268	107.912	93.1552	32.6884	176.998	64.7049	30.1095	168.299	74.2947	-1.23024	143.232	77.9763	-11.4095	178.876	38.1907	22.0383	169.773	45.2008	-12.1224	138.994	51.0576	-23.2199	169.756	20.5846	21.8592	157.501	23.1221	-8.19256	130.18	36.212	-14.0277	155.628	2.22697	28.8245	144.494	0.182238	3.92778	123.082	10.3843	-9.80515	170.231	15.0219	71.651	171.743	7.63994	101.852	177.607	44.591	90.5907	
294	2.45	145.003	71.3484	98.5877	123.724	86.8009	81.9182	111.943	96.5282	62.9206	102.564	96.8109	34.9574	175.185	68.6519	31.1227	169.757	80.2247	-0.310778	147.477	82.1033	-15.2368	180.457	42.6028	23.4104	172.345	45.1901	-10.6235	144.255	49.4895	-27.9258	173.507	26.3463	26.5138	165.718	25.9241	-7.50407	140.333	36.616	-21.3959	160.947	1.05039	33.5909	155.446	-3.01176	4.29615	140.29	7.42969	-17.3822	174.294	17.672	70.8939	171.533	14.767	103.583	176.968	46.3189	91.4527	
295	2.45833	136.77	72.4745	102.446	115.481	82.988	81.1641	102.609	96.0272	62.3769	93.8553	99.5172	37.0738	170.502	77.7873	35.63	169.059	87.3305	3.32674	151.795	88.2292	-19.8628	179.443	52.817	27.7223	179.874	53.8178	-4.42512	157.605	53.1651	-30.5002	177.582	31.9631	26.5837	175.464	31.1385	-3.16932	154.668	32.6417	-26.6614	169.093	7.81423	30.4065	167.261	2.31115	5.298	158.182	4.84618	-16.664	172.896	24.1942	74.1955	172.92	18.8205	100.813	171.831	55.1257	91.3714	
296	2.46667	128.924	69.5092	99.2232	106.465	76.696	79.2625	90.0534	94.1684	61.2828	81.7449	99.5188	39.1995	162.376	84.5714	37.5498	164.664	93.7429	10.7937	156.12	97.2425	-18.4723	179.516	59.6048	27.7385	181.279	64.2885	-1.85239	171.004	61.3341	-32.7801	180.462	41.5017	26.6091	181.135	42.4993	-2.9198	170.546	39.9678	-26.5836	175.954	14.1305	31.7759	177.31	5.00106	10.9299	176.524	1.87333	-19.4222	173.511	30.5372	76.8592	173.39	22.5217	101.851	165.721	60.646	95.0406	
297	2.475	121.218	66.5815	101.023	97.6853	74.7631	79.6207	81.1633	86.7433	64.2835	69.7791	94.8708	42.49	157.556	89.4248	36.0206	156.192	99.8163	15.6701	156.183	108.703	-14.3846	178.007	68.7329	28.6581	181.306	77.171	0.0330572	182.953	72.1816	-26.515	180.571	47.6619	30.6954	186.058	50.4675	2.43139	184.955	47.149	-26.5838	179.136	20.5917	35.4336	185.937	13.1496	12.4956	191.271	9.05463	-9.33092	176.232	36.5183	78.2642	170.706	33.4807	105.367	159.439	64.9724	97.0378	
298	2.48333	114.437	66.0577	102.034	93.0467	69.4172	80.1568	76.8864	78.3689	62.0708	63.0632	88.2805	45.0078	149.899	92.2761	39.2429	148.172	108.868	15.2776	151.776	114.717	-6.50508	172.639	76.2764	33.0157	178.914	85.8859	6.45019	184.225	90.6726	-20.4904	180.403	55.7745	30.7533	187.75	56.6083	8.17184	192.179	60.0929	-22.7841	185.507	25.7596	35.565	190.159	24.4796	16.1059	199.827	20.5279	-4.76792	176.329	43.5308	78.1783	170.138	36.2487	110.208	154.702	63.7202	95.7612	
299	2.49167	111.981	62.418	100.68	87.5313	68.3378	77.73	72.5683	73.527	63.3361	59.0176	82.0604	41.7067	144.776	95.7115	43.148	144.797	109.221	21.5586	148.92	120.008	-2.07152	172.109	83.7447	33.8412	178.852	89.9724	12.4478	185.889	97.9312	-12.749	181.624	62.9905	33.1569	189.236	65.6093	9.26637	195.13	68.6169	-16.8067	185.353	33.4318	41.0085	194.319	30.7857	15.8965	206.003	26.9096	-5.33305	174.729	50.2218	84.9639	171.726	39.5955	108.945	148.864	68.6191	99.2057	
300	2.5	111.633	61.3988	100.866	86.4059	64.2697	79.4838	69.8849	73.8085	58.5382	61.7506	77.4295	41.5578	144.055	100.998	44.3031	142.571	113.643	22.9855	144.463	125.792	-1.54995	170.47	88.9898	39.1918	175.521	98.3279	17.5372	187.126	102.339	-11.6764	182.631	67.4188	38.6847	190.571	72.4246	14.3255	192.64	76.1738	-11.5807	191.056	39.2991	39.372	198.577	34.1638	16.9544	206.733	33.0846	-0.791516	174.07	56.8003	84.1732	169.259	45.2951	111.33	146.944	71.4801	101.086	
301	2.50833	107.064	63.1297	102.732	89.8053	62.8478	76.2256	71.9476	71.0279	57.6759	66.7684	76.9335	33.2619	142.984	104.691	48.0749	140.955	117.889	24.2844	142.845	126.204	-2.41184	173.841	93.125	41.2664	178.732	103.475	17.0671	184.879	105.959	-13.7872	183.394	74.0962	39.1926	190.219	79.2648	16.5582	189.126	81.8205	-14.3728	190.384	47.5343	40.1812	196.795	40.3446	21.1411	206.158	36.533	-7.61755	174.442	56.4919	88.0678	170.015	45.0249	116.328	150.232	71.377	99.8499	
302	2.51667	110.988	60.7923	99.9069	92.9126	61.3289	74.7511	77.7917	69.6947	53.3192	74.8359	72.8202	31.581	141.825	105.78	52.2278	142.647	119.497	24.3639	139.126	124.428	-4.00119	171.082	94.7128	47.2737	180.396	105.609	18.0812	180.54	105.359	-14.0003	187.38	77.3668	42.9777	192.648	81.6326	15.5672	186.617	79.3911	-14.0955	192.294	50.8161	42.5089	198.064	44.1572	18.2528	198.182	39.9254	-7.68468	173.895	61.7297	88.5329	168.046	45.6862	117.716	149.07	73.09	102.504	
303	2.525	108.624	61.1214	100.481	92.7916	62.4132	71.7602	78.2079	69.9664	48.9644	77.1669	72.6794	27.1508	144.062	107.032	54.4261	139.379	124.186	27.7013	136.875	123.346	0.851366	174.759	99.3303	48.0329	176.803	112.215	18.2398	172.897	104.488	-11.2079	184.502	79.3281	48.1988	193.054	85.3499	16.299	179.21	80.0167	-12.5447	196.344	52.9734	42.3016	197.635	49.0163	19.3772	190.615	48.1266	-10.6772	173.473	63.4905	87.5954	168.234	47.4147	114.964	145.408	73.71	104.585	
304	2.53333	110.435	59.9086	99.474	93.9474	62.2428	72.2289	84.9907	69.1323	48.2031	87.0138	71.083	25.109	141.409	113.161	55.375	140.429	125.733	31.5807	135.893	117.315	-0.789647	171.388	103.897	51.0881	176.951	112.634	21.5094	164.01	101.63	-11.7698	184.568	86.3567	46.5811	188.613	90.1129	14.7646	173.842	78.9225	-7.28652	196.803	56.5696	44.2097	197.516	54.1249	20.1494	185.881	45.9658	-6.27871	174.68	64.4375	89.3133	170.055	49.128	114.341	145.007	75.3919	107.741	
305	2.54167	110.319	59.6486	100.619	93.351	60.4457	74.9928	87.8838	69.8487	46.0033	95.4203	70.8435	22.1544	142.634	111.38	58.4886	139.766	127.537	33.185	133.509	116.879	2.97061	170.321	103.493	54.3564	173.558	114.695	21.1139	160.78	99.602	-5.50986	185.966	88.0827	46.9718	187.698	92.3484	19.713	167.444	78.164	-3.54379	195.488	57.06	47.6328	195.762	55.9268	15.3326	178.434	53.3323	-3.16009	175.199	62.725	92.6889	173.033	47.8879	114.992	144.499	73.9779	107.565	
306	2.55	109.285	61.594	100.517	91.9374	62.2932	73.2487	84.3998	70.4981	46.0886	95.5693	69.7574	24.0275	141.237	116.387	59.2475	141.84	126.928	32.6096	134.438	113.09	4.45157	172.575	105.212	54.4165	172.671	115.602	21.4357	159.564	96.0089	-2.11061	184.923	87.1361	49.4429	185.555	91.9761	19.1794	164.738	73.0018	-1.15387	194.792	62.8696	46.282	196.638	58.5047	20.0019	172.586	52.0337	-4.82997	173.985	63.4267	94.0517	171.615	44.383	116.651	149.059	73.2484	105.412	
307	2.55833	110.433	61.5106	100.04	95.3041	62.9024	72.7277	87.1444	70.3363	48.6526	99.9196	72.0975	19.3914	146.481	115.393	57.5795	137.221	128.43	30.2569	129.348	112.941	7.40418	171.914	108.153	54.5576	172.409	115.505	21.9075	156.086	96.2826	0.145223	188.309	87.5177	49.4108	183.802	93.1557	19.7887	160.504	73.7323	2.83101	196.802	60.1387	46.7475	193.642	59.9734	16.9552	169.677	55.945	-0.8912	176.821	63.0487	90.9397	168.575	49.4223	113.868	148.084	75.0976	107.206	
308	2.56667	112.549	62.0261	99.639	94.2102	63.0325	75.7623	87.3451	70.6248	49.1295	102.803	71.0355	23.3284	145.327	114.187	59.2881	140.961	125.693	28.961	132.15	110.972	8.25798	174.134	107.685	53.3475	174.769	115.161	25.266	154.711	93.806	2.15265	188.547	89.6344	48.9324	186.784	90.9627	19.6485	160.992	76.4303	6.24147	192.321	63.2707	49.869	194.453	61.3647	19.1532	166.403	54.7811	0.383537	176.351	64.2996	91.5999	171.384	49.5427	114.663	146.735	74.688	106.633	
309	2.575	112.47	61.7645	100.385	94.502	67.17	70.6986	88.626	74.0754	43.5893	106.052	70.3638	24.6385	141.089	117.291	59.2794	140.405	127.195	31.8385	129.966	107.303	8.56177	172.349	105.565	56.1608	172.768	113.905	21.0495	154.244	91.5096	3.25977	186.505	91.981	48.3025	185.677	92.181	18.8407	158.973	71.7605	6.96309	195.337	63.5979	47.5856	194.696	64.008	20.3556	168.137	55.876	2.47254	174.682	64.5978	95.5926	172.722	47.4849	116.918	149.726	76.0811	106.869	
310	2.58333	110.337	63.5247	99.1377	97.7626	64.4867	72.2867	87.767	72.1848	46.8143	107.749	70.455	24.3078	142.383	117.37	58.5487	140.323	127.284	32.4532	131.816	106.636	9.63138	171.258	106.685	54.2223	173.609	113.7	23.0998	150.387	92.1228	3.42335	187.305	88.0521	51.3111	180.873	93.7735	18.866	156.499	73.8431	9.63113	196.695	65.1405	47.3423	189.23	66.7133	18.5013	163.13	54.9052	5.0301	175.632	67.7547	93.7617	170.27	49.0043	116.339	148.136	75.9369	106.067	
